<?xml version="1.0" standalone="no"?>
<!DOCTYPE svg PUBLIC "-//W3C//DTD SVG 20010904//EN"
 "http://www.w3.org/TR/2001/REC-SVG-20010904/DTD/svg10.dtd">
<svg version="1.0" xmlns="http://www.w3.org/2000/svg"
 width="271.000000pt" height="186.000000pt" viewBox="0 0 271.000000 186.000000"
 preserveAspectRatio="xMidYMid meet">

<g transform="translate(0.000000,186.000000) scale(0.100000,-0.100000)"
fill="#000000" stroke="none">
<path d="M0 930 l0 -930 1355 0 1355 0 0 930 0 930 -1355 0 -1355 0 0 -930z
m1870 59 c19 -5 124 -9 232 -9 186 0 291 -11 303 -30 3 -5 -86 -9 -203 -9
-215 -1 -244 -4 -236 -25 6 -16 -56 -33 -142 -39 -64 -5 -104 5 -63 16 38 10
12 21 -42 18 -35 -2 -49 1 -44 8 4 7 -9 11 -38 11 -64 0 -107 10 -107 26 0 8
10 14 24 14 13 0 39 3 57 6 26 4 30 3 19 -5 -12 -9 -10 -11 12 -11 15 0 38 -5
52 -11 20 -10 29 -8 55 10 35 25 39 38 14 44 -10 2 2 2 27 0 25 -3 61 -9 80
-14z m515 -79 c-3 -5 -11 -10 -16 -10 -6 0 -7 5 -4 10 3 6 11 10 16 10 6 0 7
-4 4 -10z m-875 -10 c13 -9 13 -10 0 -9 -8 0 -24 4 -35 9 l-20 9 20 0 c11 0
27 -4 35 -9z m830 6 c0 -2 -7 -7 -16 -10 -8 -3 -12 -2 -9 4 6 10 25 14 25 6z
m-762 -13 c-10 -2 -26 -2 -35 0 -10 3 -2 5 17 5 19 0 27 -2 18 -5z m85 0 c-13
-2 -33 -2 -45 0 -13 2 -3 4 22 4 25 0 35 -2 23 -4z m202 -43 c3 -6 -1 -7 -9
-4 -18 7 -21 14 -7 14 6 0 13 -4 16 -10z"/>
</g>
</svg>
